<svg width="230" height="143" viewBox="0 0 230 143" fill="none" xmlns="http://www.w3.org/2000/svg">
<path d="M40.9668 142.141L34.6191 135.646V85.9395H25V73H43.2129L56.2012 85.9395V142.141H40.9668ZM21.582 112.746H31.2012V118.459L24.7559 124.855H12.9883L0 111.916V85.9395L12.9883 73H21.582V112.746Z" fill="#FF570A"/>
<path d="M139.247 131.348L109.105 117.801L95.7906 9.52239L125.741 22.983L139.247 131.348ZM57.5418 94.627L92.1588 17.6032L98.6624 69.1682L82.233 105.724L57.5418 94.627ZM177.496 46.2436L142.879 123.267L136.462 71.51L152.805 35.1465L177.496 46.2436Z" fill="#420039"/>
<path d="M213.967 69.1406L207.619 62.6465V12.9395H198V0H216.213L229.201 12.9395V69.1406H213.967ZM194.582 39.7461H204.201V45.459L197.756 51.8555H185.988L173 38.916V12.9395L185.988 0H194.582V39.7461Z" fill="#FF570A"/>
</svg>
